<?xml version="1.0" encoding="UTF-8"?> <svg xmlns="http://www.w3.org/2000/svg" width="772" height="170" viewBox="0 0 772 170" fill="none"><rect x="0.5" y="0.5" width="670" height="169" rx="39.5" stroke="#C2C2C2"></rect><path d="M146 86.3153C146 82.3927 145.642 78.6209 144.977 75H92V96.4236H122.273C120.943 103.313 116.955 109.147 110.972 113.07V127H129.227C139.864 117.344 146 103.162 146 86.3153Z" fill="#4285F4"></path><path d="M91.9614 141C107.072 141 119.74 136.045 129 127.551L110.837 113.545C105.851 116.882 99.4912 118.904 91.9614 118.904C77.4105 118.904 65.0474 109.146 60.6211 96H42V110.36C51.2088 128.511 70.0842 141 91.9614 141Z" fill="#34A853"></path><path d="M61 95.5984C59.8636 92.2515 59.1921 88.7018 59.1921 85C59.1921 81.2982 59.8636 77.7485 61 74.4016V60H42.095C38.2211 67.5051 36 75.9736 36 85C36 94.0264 38.2211 102.495 42.095 110L56.8161 98.7424L61 95.5984Z" fill="#FBBC05"></path><path d="M91.7288 51.1212C99.9325 51.1212 107.225 53.9495 113.048 59.404L129 43.4949C119.328 34.5051 106.769 29 91.7288 29C69.9534 29 51.1659 41.4747 42 59.6566L60.5343 74C64.94 60.8687 77.2456 51.1212 91.7288 51.1212Z" fill="#EA4335"></path><path d="M255.417 120.24H250.257V129H244.617V120.24H222.177V115.02L242.637 85.62H250.257V115.02H255.417V120.24ZM228.537 115.02H244.617V91.86L228.537 115.02ZM269.532 126.66C269.532 128.82 268.812 130.7 267.372 132.3C265.932 133.9 264.152 134.84 262.032 135.12V132.6C263.272 132.4 264.272 131.92 265.032 131.16C265.832 130.44 266.232 129.62 266.232 128.7C265.832 128.94 265.292 129.06 264.612 129.06C263.612 129.06 262.752 128.72 262.032 128.04C261.312 127.36 260.952 126.48 260.952 125.4C260.952 124.2 261.312 123.22 262.032 122.46C262.792 121.66 263.772 121.26 264.972 121.26C266.252 121.26 267.332 121.76 268.212 122.76C269.092 123.76 269.532 125.06 269.532 126.66ZM300.192 115.26L290.052 129H283.212L294.072 114.6C292.552 115.2 291.032 115.5 289.512 115.5C285.072 115.5 281.452 114.08 278.652 111.24C275.852 108.36 274.452 104.74 274.452 100.38C274.452 95.9 275.952 92.2 278.952 89.28C281.992 86.32 285.752 84.84 290.232 84.84C294.752 84.84 298.532 86.34 301.572 89.34C304.652 92.34 306.192 96.04 306.192 100.44C306.192 102.96 305.752 105.3 304.872 107.46C303.992 109.58 302.432 112.18 300.192 115.26ZM300.192 100.38C300.192 97.38 299.252 94.92 297.372 93C295.532 91.08 293.152 90.12 290.232 90.12C287.352 90.12 284.992 91.1 283.152 93.06C281.312 94.98 280.392 97.42 280.392 100.38C280.392 103.34 281.312 105.78 283.152 107.7C284.992 109.58 287.352 110.52 290.232 110.52C293.152 110.52 295.532 109.58 297.372 107.7C299.252 105.78 300.192 103.34 300.192 100.38ZM314.252 129H308.672L325.592 85.68H331.232L314.252 129ZM346.934 129.72C342.494 129.72 338.934 128.42 336.254 125.82C333.614 123.22 332.294 119.76 332.294 115.44H338.114C338.114 118.24 338.914 120.44 340.514 122.04C342.114 123.64 344.294 124.44 347.054 124.44C349.974 124.44 352.314 123.56 354.074 121.8C355.834 120 356.714 117.62 356.714 114.66C356.714 111.82 355.854 109.5 354.134 107.7C352.414 105.86 350.074 104.94 347.114 104.94C345.314 104.94 343.614 105.32 342.014 106.08C340.414 106.84 339.114 107.86 338.114 109.14L333.134 107.88L338.414 85.62H360.134V91.02H342.674L339.794 102.54C342.114 100.78 344.914 99.9 348.194 99.9C352.554 99.9 356.054 101.26 358.694 103.98C361.374 106.7 362.714 110.18 362.714 114.42C362.714 118.94 361.254 122.62 358.334 125.46C355.414 128.3 351.614 129.72 346.934 129.72Z" fill="#272727"></path><path d="M223.648 55H220.384L228.832 31.864H232.32L240.8 55H237.504L235.424 49.24H225.696L223.648 55ZM230.176 36.856L226.656 46.52H234.496L230.944 36.856C230.88 36.6213 230.805 36.3867 230.72 36.152C230.635 35.896 230.581 35.6827 230.56 35.512C230.517 35.6827 230.464 35.896 230.4 36.152C230.336 36.3867 230.261 36.6213 230.176 36.856ZM246.654 55L240.35 39.352H243.55L246.974 48.088C247.251 48.8133 247.496 49.5067 247.71 50.168C247.923 50.808 248.094 51.3627 248.222 51.832C248.371 51.2987 248.552 50.712 248.766 50.072C249 49.432 249.256 48.7707 249.534 48.088L253.022 39.352H256.158L249.63 55H246.654ZM258.551 55V39.352H261.559V55H258.551ZM260.023 35.64C259.49 35.64 259.02 35.448 258.615 35.064C258.231 34.6587 258.039 34.1893 258.039 33.656C258.039 33.1013 258.231 32.632 258.615 32.248C259.02 31.864 259.49 31.672 260.023 31.672C260.578 31.672 261.047 31.864 261.431 32.248C261.815 32.632 262.007 33.1013 262.007 33.656C262.007 34.1893 261.815 34.6587 261.431 35.064C261.047 35.448 260.578 35.64 260.023 35.64ZM264.646 50.456H267.526C267.526 51.2453 267.814 51.8747 268.39 52.344C268.966 52.792 269.745 53.016 270.726 53.016C271.793 53.016 272.614 52.8133 273.19 52.408C273.766 51.9813 274.054 51.416 274.054 50.712C274.054 50.2 273.894 49.7733 273.574 49.432C273.275 49.0907 272.721 48.8133 271.91 48.6L269.158 47.96C267.771 47.6187 266.737 47.096 266.054 46.392C265.393 45.688 265.062 44.76 265.062 43.608C265.062 42.648 265.307 41.816 265.798 41.112C266.31 40.408 267.003 39.864 267.878 39.48C268.774 39.096 269.798 38.904 270.95 38.904C272.102 38.904 273.094 39.1067 273.926 39.512C274.779 39.9173 275.441 40.4827 275.91 41.208C276.401 41.9333 276.657 42.7973 276.678 43.8H273.798C273.777 42.9893 273.51 42.36 272.998 41.912C272.486 41.464 271.771 41.24 270.854 41.24C269.915 41.24 269.19 41.4427 268.678 41.848C268.166 42.2533 267.91 42.808 267.91 43.512C267.91 44.5573 268.678 45.272 270.214 45.656L272.966 46.328C274.289 46.6267 275.281 47.1173 275.942 47.8C276.603 48.4613 276.934 49.368 276.934 50.52C276.934 51.5013 276.667 52.3653 276.134 53.112C275.601 53.8373 274.865 54.4027 273.926 54.808C273.009 55.192 271.921 55.384 270.662 55.384C268.827 55.384 267.366 54.936 266.278 54.04C265.19 53.144 264.646 51.9493 264.646 50.456ZM299.452 34.424C297.788 34.424 296.358 34.808 295.164 35.576C293.969 36.344 293.052 37.4107 292.412 38.776C291.772 40.1413 291.452 41.7413 291.452 43.576C291.452 45.432 291.782 47.0213 292.444 48.344C293.126 49.6667 294.076 50.68 295.292 51.384C296.508 52.0667 297.905 52.408 299.484 52.408C300.486 52.408 301.414 52.28 302.268 52.024C303.121 51.768 303.868 51.3733 304.508 50.84C305.148 50.2853 305.649 49.5813 306.012 48.728C306.396 47.8747 306.588 46.872 306.588 45.72V43.544L308.06 45.048H298.844V42.264H309.532V55.032H306.908L306.588 50.744L307.004 51.256C306.662 52.024 306.118 52.7173 305.372 53.336C304.625 53.9547 303.729 54.456 302.684 54.84C301.638 55.2027 300.486 55.384 299.228 55.384C297.052 55.384 295.132 54.8933 293.468 53.912C291.804 52.9093 290.502 51.5227 289.564 49.752C288.625 47.9813 288.156 45.9013 288.156 43.512C288.156 41.1653 288.625 39.0853 289.564 37.272C290.524 35.4587 291.857 34.04 293.564 33.016C295.27 31.992 297.254 31.48 299.516 31.48C301.201 31.48 302.737 31.7893 304.124 32.408C305.51 33.0053 306.652 33.8587 307.548 34.968C308.465 36.056 309.041 37.3467 309.276 38.84H305.948C305.521 37.368 304.71 36.2693 303.516 35.544C302.342 34.7973 300.988 34.424 299.452 34.424ZM312.465 47.16C312.465 45.56 312.817 44.1413 313.521 42.904C314.225 41.6667 315.185 40.696 316.401 39.992C317.638 39.288 319.046 38.936 320.625 38.936C322.203 38.936 323.601 39.288 324.817 39.992C326.033 40.696 326.993 41.6667 327.697 42.904C328.401 44.1413 328.753 45.56 328.753 47.16C328.753 48.76 328.401 50.1787 327.697 51.416C326.993 52.6533 326.033 53.624 324.817 54.328C323.601 55.032 322.203 55.384 320.625 55.384C319.046 55.384 317.638 55.032 316.401 54.328C315.185 53.624 314.225 52.6533 313.521 51.416C312.817 50.1787 312.465 48.76 312.465 47.16ZM315.505 47.16C315.505 48.248 315.718 49.208 316.145 50.04C316.593 50.872 317.201 51.5227 317.969 51.992C318.737 52.4613 319.622 52.696 320.625 52.696C321.627 52.696 322.513 52.4613 323.281 51.992C324.049 51.5227 324.646 50.872 325.073 50.04C325.521 49.208 325.745 48.248 325.745 47.16C325.745 46.0507 325.521 45.0907 325.073 44.28C324.646 43.448 324.049 42.7973 323.281 42.328C322.513 41.8587 321.627 41.624 320.625 41.624C319.622 41.624 318.737 41.8587 317.969 42.328C317.201 42.7973 316.593 43.448 316.145 44.28C315.718 45.0907 315.505 46.0507 315.505 47.16ZM331.058 47.16C331.058 45.56 331.41 44.1413 332.114 42.904C332.818 41.6667 333.778 40.696 334.994 39.992C336.232 39.288 337.64 38.936 339.218 38.936C340.797 38.936 342.194 39.288 343.41 39.992C344.626 40.696 345.586 41.6667 346.29 42.904C346.994 44.1413 347.346 45.56 347.346 47.16C347.346 48.76 346.994 50.1787 346.29 51.416C345.586 52.6533 344.626 53.624 343.41 54.328C342.194 55.032 340.797 55.384 339.218 55.384C337.64 55.384 336.232 55.032 334.994 54.328C333.778 53.624 332.818 52.6533 332.114 51.416C331.41 50.1787 331.058 48.76 331.058 47.16ZM334.098 47.16C334.098 48.248 334.312 49.208 334.738 50.04C335.186 50.872 335.794 51.5227 336.562 51.992C337.33 52.4613 338.216 52.696 339.218 52.696C340.221 52.696 341.106 52.4613 341.874 51.992C342.642 51.5227 343.24 50.872 343.666 50.04C344.114 49.208 344.338 48.248 344.338 47.16C344.338 46.0507 344.114 45.0907 343.666 44.28C343.24 43.448 342.642 42.7973 341.874 42.328C341.106 41.8587 340.221 41.624 339.218 41.624C338.216 41.624 337.33 41.8587 336.562 42.328C335.794 42.7973 335.186 43.448 334.738 44.28C334.312 45.0907 334.098 46.0507 334.098 47.16ZM349.684 46.776C349.684 45.304 349.983 43.9813 350.58 42.808C351.177 41.6133 352.031 40.664 353.14 39.96C354.249 39.256 355.561 38.904 357.076 38.904C358.484 38.904 359.689 39.2453 360.692 39.928C361.695 40.5893 362.409 41.5173 362.836 42.712L362.452 43.128L362.772 39.352H365.46V54.36C365.46 56.0027 365.14 57.4213 364.5 58.616C363.86 59.832 362.953 60.7707 361.78 61.432C360.607 62.0933 359.22 62.424 357.62 62.424C355.487 62.424 353.737 61.8587 352.372 60.728C351.007 59.5973 350.175 58.04 349.876 56.056H352.884C353.076 57.208 353.588 58.104 354.42 58.744C355.252 59.384 356.319 59.704 357.62 59.704C359.092 59.704 360.265 59.256 361.14 58.36C362.036 57.4853 362.484 56.3013 362.484 54.808V50.392L362.868 50.808C362.463 51.9813 361.727 52.9093 360.66 53.592C359.593 54.2533 358.356 54.584 356.948 54.584C355.455 54.584 354.164 54.2427 353.076 53.56C351.988 52.856 351.145 51.9173 350.548 50.744C349.972 49.5707 349.684 48.248 349.684 46.776ZM352.692 46.712C352.692 47.6933 352.884 48.5787 353.268 49.368C353.673 50.1573 354.228 50.7867 354.932 51.256C355.657 51.7253 356.5 51.96 357.46 51.96C358.484 51.96 359.359 51.736 360.084 51.288C360.809 50.84 361.364 50.2213 361.748 49.432C362.153 48.6427 362.356 47.736 362.356 46.712C362.356 45.688 362.164 44.792 361.78 44.024C361.396 43.256 360.841 42.648 360.116 42.2C359.391 41.752 358.516 41.528 357.492 41.528C356.489 41.528 355.625 41.7627 354.9 42.232C354.196 42.7013 353.652 43.3307 353.268 44.12C352.884 44.888 352.692 45.752 352.692 46.712ZM372.873 55H369.865V31.448H372.873V55ZM384.053 55.384C382.538 55.384 381.194 55.0427 380.021 54.36C378.848 53.656 377.93 52.696 377.269 51.48C376.608 50.2427 376.277 48.8133 376.277 47.192C376.277 45.5493 376.597 44.1093 377.237 42.872C377.898 41.6347 378.794 40.664 379.925 39.96C381.077 39.256 382.41 38.904 383.925 38.904C385.418 38.904 386.709 39.224 387.797 39.864C388.906 40.504 389.76 41.4 390.357 42.552C390.976 43.704 391.285 45.0587 391.285 46.616V47.736L377.877 47.768L377.941 45.752H388.277C388.277 44.4507 387.882 43.4053 387.093 42.616C386.304 41.8267 385.248 41.432 383.925 41.432C382.922 41.432 382.058 41.656 381.333 42.104C380.629 42.5307 380.085 43.1707 379.701 44.024C379.338 44.856 379.157 45.8587 379.157 47.032C379.157 48.9093 379.584 50.36 380.437 51.384C381.29 52.3867 382.517 52.888 384.117 52.888C385.29 52.888 386.25 52.6533 386.997 52.184C387.744 51.7147 388.245 51.032 388.501 50.136H391.317C390.933 51.8 390.112 53.0907 388.853 54.008C387.594 54.9253 385.994 55.384 384.053 55.384Z" fill="#272727"></path><path d="M425.596 93.552C425.796 93.2788 426.204 93.2788 426.404 93.552L432.465 101.842C432.526 101.926 432.613 101.989 432.712 102.022L442.469 105.224C442.791 105.33 442.917 105.718 442.719 105.992L436.708 114.318C436.647 114.403 436.614 114.505 436.613 114.609L436.582 124.878C436.581 125.217 436.251 125.457 435.929 125.353L426.153 122.209C426.054 122.177 425.946 122.177 425.847 122.209L416.071 125.353C415.749 125.457 415.419 125.217 415.418 124.878L415.387 114.609C415.386 114.505 415.353 114.403 415.292 114.318L409.281 105.992C409.083 105.718 409.209 105.33 409.531 105.224L419.288 102.022C419.387 101.989 419.474 101.926 419.535 101.842L425.596 93.552Z" fill="#FBBC05"></path><path d="M471.596 93.552C471.796 93.2788 472.204 93.2788 472.404 93.552L478.465 101.842C478.526 101.926 478.613 101.989 478.712 102.022L488.469 105.224C488.791 105.33 488.917 105.718 488.719 105.992L482.708 114.318C482.647 114.403 482.614 114.505 482.613 114.609L482.582 124.878C482.581 125.217 482.251 125.457 481.929 125.353L472.153 122.209C472.054 122.177 471.946 122.177 471.847 122.209L462.071 125.353C461.749 125.457 461.419 125.217 461.418 124.878L461.387 114.609C461.386 114.505 461.353 114.403 461.292 114.318L455.281 105.992C455.083 105.718 455.209 105.33 455.531 105.224L465.288 102.022C465.387 101.989 465.474 101.926 465.535 101.842L471.596 93.552Z" fill="#FBBC05"></path><path d="M516.596 93.552C516.796 93.2788 517.204 93.2788 517.404 93.552L523.465 101.842C523.526 101.926 523.613 101.989 523.712 102.022L533.469 105.224C533.791 105.33 533.917 105.718 533.719 105.992L527.708 114.318C527.647 114.403 527.614 114.505 527.613 114.609L527.582 124.878C527.581 125.217 527.251 125.457 526.929 125.353L517.153 122.209C517.054 122.177 516.946 122.177 516.847 122.209L507.071 125.353C506.749 125.457 506.419 125.217 506.418 124.878L506.387 114.609C506.386 114.505 506.353 114.403 506.292 114.318L500.281 105.992C500.083 105.718 500.209 105.33 500.531 105.224L510.288 102.022C510.387 101.989 510.474 101.926 510.535 101.842L516.596 93.552Z" fill="#FBBC05"></path><path d="M562.596 93.552C562.796 93.2788 563.204 93.2788 563.404 93.552L569.465 101.842C569.526 101.926 569.613 101.989 569.712 102.022L579.469 105.224C579.791 105.33 579.917 105.718 579.719 105.992L573.708 114.318C573.647 114.403 573.614 114.505 573.613 114.609L573.582 124.878C573.581 125.217 573.251 125.457 572.929 125.353L563.153 122.209C563.054 122.177 562.946 122.177 562.847 122.209L553.071 125.353C552.749 125.457 552.419 125.217 552.418 124.878L552.387 114.609C552.386 114.505 552.353 114.403 552.292 114.318L546.281 105.992C546.083 105.718 546.209 105.33 546.531 105.224L556.288 102.022C556.387 101.989 556.474 101.926 556.535 101.842L562.596 93.552Z" fill="#FBBC05"></path><path d="M608.596 93.552C608.796 93.2788 609.204 93.2788 609.404 93.552L615.465 101.842C615.526 101.926 615.613 101.989 615.712 102.022L625.469 105.224C625.791 105.33 625.917 105.718 625.719 105.992L619.708 114.318C619.647 114.403 619.614 114.505 619.613 114.609L619.582 124.878C619.581 125.217 619.251 125.457 618.929 125.353L609.153 122.209C609.054 122.177 608.946 122.177 608.847 122.209L599.071 125.353C598.749 125.457 598.419 125.217 598.418 124.878L598.387 114.609C598.386 114.505 598.353 114.403 598.292 114.318L592.281 105.992C592.083 105.718 592.209 105.33 592.531 105.224L602.288 102.022C602.387 101.989 602.474 101.926 602.535 101.842L608.596 93.552Z" fill="#FBBC05"></path></svg> 