<svg width="1613" height="1613" viewBox="0 0 1613 1613" fill="none" xmlns="http://www.w3.org/2000/svg">
<rect width="1613" height="1613" fill="white"/>
<circle cx="1219" cy="1086" r="280" fill="#56A681"/>
<path d="M1184.64 659.501L1046.32 761.471V585.221L806 371.608L565.685 585.221V761.471L427.359 659.501L220.375 812.086V1240H1391.63V812.086L1184.64 659.501ZM806 463.473L977.654 616.055V1171.34H908.992V1045.46C908.992 988.672 862.79 942.469 806 942.469C749.21 942.469 703.008 988.672 703.008 1045.46V1171.34H634.346V616.052L806 463.473ZM840.331 1171.34H771.669V1045.46C771.669 1026.53 787.07 1011.13 806 1011.13C824.93 1011.13 840.331 1026.53 840.331 1045.46V1171.34ZM289.036 846.771L427.362 744.802L565.687 846.769V1171.34H289.036V846.771ZM1322.96 1171.34H1046.32V846.771L1184.64 744.804L1322.97 846.773V1171.34H1322.96Z" fill="#2D342E"/>
<path d="M393.031 928.565H461.692V997.227H393.031V928.565Z" fill="#2D342E"/>
<path d="M1150.31 928.565H1218.97V997.227H1150.31V928.565Z" fill="#2D342E"/>
<path d="M908.992 639.951H703.008V845.936H908.992V639.951ZM840.331 777.274H771.669V708.613H840.331V777.274Z" fill="#2D342E"/>
</svg>
