<svg width="1613" height="1613" viewBox="0 0 1613 1613" fill="none" xmlns="http://www.w3.org/2000/svg">
<rect width="1613" height="1613" fill="white"/>
<circle cx="1244" cy="1180" r="280" fill="#56A681"/>
<path d="M1156.03 473.083H1130.55L1080.27 517.775H531.725L481.446 473.083H455.968L379.06 541.444V464.148H312.049V601.011L234.165 670.241V1148H1377.83V670.241L1156.03 473.083ZM1004.88 584.787L929.512 651.784H682.488L607.118 584.787H1004.88ZM856.882 1080.99H755.116V891.715H856.882V1080.99ZM1310.82 1080.99H923.894V824.703H688.106V1080.99H301.177V700.334L468.709 551.415L657.008 718.793H954.99L1143.29 551.415L1310.82 700.334V1080.99Z" fill="#2D342E"/>
<path d="M368.189 993.893H569.225V765.867H368.189V993.893ZM435.201 832.879H502.213V926.881H435.201V832.879Z" fill="#2D342E"/>
<path d="M1042.78 993.893H1243.81V765.867H1042.78V993.893ZM1109.79 832.879H1176.8V926.881H1109.79V832.879Z" fill="#2D342E"/>
</svg>
