<svg width="1613" height="1613" viewBox="0 0 1613 1613" fill="none" xmlns="http://www.w3.org/2000/svg">
<rect width="1613" height="1613" fill="white"/>
<circle cx="1233" cy="1180" r="280" fill="#56A681"/>
<path d="M1274.28 213.657H339.718L214 570.698V1397.35H1400V570.698L1274.28 213.657ZM388.828 283.014H1225.17L1316.35 541.945H1199.91V488.654C1199.91 416.056 1140.84 356.994 1068.25 356.994C995.648 356.994 936.586 416.056 936.586 488.654V541.945H676.26V488.654C676.26 416.056 617.198 356.994 544.6 356.994C472.002 356.994 412.941 416.056 412.941 488.654V541.945H297.653L388.828 283.014ZM1130.55 541.945H1005.94V488.654C1005.94 454.302 1033.89 426.351 1068.24 426.351C1102.6 426.351 1130.55 454.299 1130.55 488.654V541.945ZM606.904 541.945H482.297V488.654C482.297 454.302 510.248 426.351 544.6 426.351C578.953 426.351 606.904 454.299 606.904 488.654V541.945ZM283.357 1327.99V611.302H1330.64V1327.99H283.357Z" fill="#2D342E"/>
<path d="M388.548 934.967H596.618V680.659H388.548V934.967ZM457.904 750.016H527.261V865.61H457.904V750.016Z" fill="#2D342E"/>
<path d="M701.809 934.967H909.879V680.659H701.809V934.967ZM771.166 750.016H840.523V865.61H771.166V750.016Z" fill="#2D342E"/>
<path d="M1016.23 934.967H1224.3V680.659H1016.23V934.967ZM1085.58 750.016H1154.94V865.61H1085.58V750.016Z" fill="#2D342E"/>
<path d="M388.548 1258.63H596.618V1004.32H388.548V1258.63ZM457.904 1073.68H527.261V1189.27H457.904V1073.68Z" fill="#2D342E"/>
<path d="M701.809 1258.63H909.879V1004.32H701.809V1258.63ZM771.166 1073.68H840.523V1189.27H771.166V1073.68Z" fill="#2D342E"/>
<path d="M1016.23 1258.63H1224.3V1004.32H1016.23V1258.63ZM1085.58 1073.68H1154.94V1189.27H1085.58V1073.68Z" fill="#2D342E"/>
</svg>
