<svg width="1613" height="1613" viewBox="0 0 1613 1613" fill="none" xmlns="http://www.w3.org/2000/svg">
<rect width="1613" height="1613" fill="white"/>
<circle cx="1244" cy="1188" r="280" fill="#56A681"/>
<path d="M1283.9 401.622V275.777H1214.45V376.858H911.733L804.733 212L697.734 376.858H397.328V275.777H327.884V401.622L212.144 586.806V1400H1399.64V586.806L1283.9 401.622ZM1229.93 446.302L1302.27 562.042H1031.92L956.802 446.302H1229.93ZM978.343 607.044V1330.56H908.899V1197.07C908.899 1139.63 862.17 1092.9 804.733 1092.9C747.296 1092.9 700.567 1139.63 700.567 1197.07V1330.56H631.123V607.044L804.733 339.557L978.343 607.044ZM770.011 1330.56V1197.07C770.011 1177.92 785.588 1162.35 804.733 1162.35C823.879 1162.35 839.455 1177.92 839.455 1197.07V1330.56H770.011ZM577.545 562.042H309.514L381.852 446.302H652.662L577.545 562.042ZM281.588 1330.56V631.486H561.679V1330.56H281.588ZM1047.79 1330.56V631.486H1330.19V1330.56H1047.79Z" fill="#2D342E"/>
<path d="M908.899 766.066H700.567V993.366H908.899V766.066ZM839.455 923.922H770.011V835.51H839.455V923.922Z" fill="#2D342E"/>
<path d="M386.912 700.93H456.356V826.7H386.912V700.93Z" fill="#2D342E"/>
<path d="M386.912 896.144H456.356V1021.91H386.912V896.144Z" fill="#2D342E"/>
<path d="M386.912 1091.36H456.356V1217.13H386.912V1091.36Z" fill="#2D342E"/>
<path d="M1154.27 700.93H1223.71V826.7H1154.27V700.93Z" fill="#2D342E"/>
<path d="M1154.27 896.144H1223.71V1021.91H1154.27V896.144Z" fill="#2D342E"/>
<path d="M1154.27 1091.36H1223.71V1217.13H1154.27V1091.36Z" fill="#2D342E"/>
<path d="M770.011 587.827H839.455V657.271H770.011V587.827Z" fill="#2D342E"/>
</svg>
