<svg width="918" height="490" viewBox="0 0 918 490" fill="none" xmlns="http://www.w3.org/2000/svg">
<path d="M899.761 290.202C924.143 315.978 923.208 356.98 894.807 378.247C853.367 409.278 807.734 434.468 759.179 453.018C690.573 479.228 617.477 491.668 544.063 489.629C470.65 487.589 398.357 471.11 331.312 441.131C264.268 411.153 203.784 368.263 153.315 314.909C102.846 261.556 63.38 198.785 37.1702 130.179C10.9604 61.5731 -1.47991 -11.5232 0.559645 -84.9366C2.59915 -158.35 19.0786 -230.643 49.057 -297.688C70.274 -345.138 97.9587 -389.302 131.243 -428.955C154.054 -456.132 195.045 -454.789 219.427 -429.013C243.81 -403.238 242.23 -362.825 220.363 -334.883C198.832 -307.371 180.679 -277.278 166.353 -245.24C143.262 -193.599 130.569 -137.915 128.998 -81.3684C127.427 -24.8217 137.009 31.4807 157.197 84.3242C177.385 137.168 207.784 185.517 246.658 226.613C285.532 267.708 332.119 300.744 383.76 323.835C435.401 346.926 491.085 359.619 547.632 361.19C604.178 362.761 660.481 353.179 713.324 332.991C746.108 320.466 777.162 304.012 805.828 284.042C834.94 263.76 875.379 264.426 899.761 290.202Z" fill="#F2D249"/>
</svg>
