<svg width="749" height="384" viewBox="0 0 749 384" fill="none" xmlns="http://www.w3.org/2000/svg">
<path d="M744.011 958.589C757.198 991.529 741.24 1029.31 707.006 1038.63C657.055 1052.24 605.355 1058.87 553.38 1058.25C479.944 1057.38 407.398 1042.05 339.887 1013.13C272.375 984.223 211.218 942.298 159.909 889.752C108.6 837.206 68.1431 775.069 40.8481 706.888C13.5531 638.706 -0.0453399 565.817 0.82922 492.38C1.70379 418.944 17.0341 346.398 45.9451 278.886C74.856 211.375 116.781 150.218 169.327 98.9091C206.516 62.5953 248.51 31.7174 294.05 7.09429C325.261 -9.78115 362.882 6.55074 376.068 39.4903C389.255 72.4298 372.915 109.425 342.3 127.36C312.156 145.019 284.203 166.321 259.094 190.839C218.62 230.36 186.327 277.466 164.059 329.467C141.79 381.468 129.982 437.346 129.308 493.91C128.634 550.475 139.109 606.618 160.133 659.135C181.157 711.651 212.319 759.512 251.839 799.986C291.36 840.459 338.466 872.752 390.467 895.021C442.468 917.289 498.346 929.098 554.91 929.771C590.003 930.189 624.933 926.316 658.936 918.296C693.469 910.15 730.824 925.65 744.011 958.589Z" fill="#CC5744"/>
</svg>
