<svg width="382" height="560" viewBox="0 0 382 560" fill="none" xmlns="http://www.w3.org/2000/svg">
<path d="M30.4255 -448.742C45.3321 -480.94 83.7625 -495.264 114.039 -476.764C158.216 -449.772 198.522 -416.721 233.743 -378.495C283.508 -324.485 322.147 -261.201 347.455 -192.257C372.762 -123.314 384.243 -50.0605 381.24 23.3198C378.238 96.7002 360.812 168.771 329.957 235.416C299.101 302.062 255.421 361.978 201.411 411.743C147.4 461.507 84.1162 500.147 15.1727 525.455C-53.7709 550.762 -127.024 562.243 -200.405 559.24C-252.339 557.116 -303.618 547.766 -352.781 531.544C-386.475 520.426 -400.417 481.855 -385.51 449.658C-370.603 417.46 -332.482 403.953 -298.427 413.91C-264.895 423.714 -230.217 429.425 -195.152 430.86C-138.631 433.172 -82.2074 424.33 -29.1037 404.836C24.0001 385.343 72.7444 355.581 114.346 317.25C155.948 278.918 189.592 232.768 213.358 181.435C237.125 130.101 250.547 74.5884 252.86 18.0672C255.172 -38.454 246.329 -94.8772 226.836 -147.981C207.343 -201.085 177.581 -249.829 139.25 -291.431C115.469 -317.24 88.6792 -339.987 59.5091 -359.213C29.8838 -378.738 15.5188 -416.545 30.4255 -448.742Z" fill="#56A681"/>
</svg>
