<svg width="1613" height="1613" viewBox="0 0 1613 1613" fill="none" xmlns="http://www.w3.org/2000/svg">
<rect width="1613" height="1613" fill="white"/>
<circle cx="1233" cy="1188" r="280" fill="#56A681"/>
<path d="M1401.22 1173.52V1061.19C1401.22 1003.61 1354.38 956.768 1296.8 956.768C1239.21 956.768 1192.37 1003.61 1192.37 1061.19V1173.52C1192.37 1218.9 1221.47 1257.59 1261.99 1271.96V1330.38H1121.28V211.867H492.408V1330.38H352.014V1271.96C392.528 1257.59 421.631 1218.9 421.631 1173.52V1061.19C421.631 1003.61 374.785 956.768 317.205 956.768C259.625 956.768 212.779 1003.61 212.779 1061.19V1173.52C212.779 1218.9 241.881 1257.59 282.396 1271.96V1330.38H212.779V1400H1400.91V1330.38H1331.6V1271.96C1372.12 1257.59 1401.22 1218.9 1401.22 1173.52ZM282.396 1061.19C282.396 1042 298.011 1026.39 317.205 1026.39C336.398 1026.39 352.014 1042 352.014 1061.19V1173.52C352.014 1192.71 336.398 1208.33 317.205 1208.33C298.011 1208.33 282.396 1192.71 282.396 1173.52V1061.19ZM768.436 1330.38V1256.12H845.256V1330.38H768.436ZM698.818 1186.51V1330.38H562.025V281.484H1051.67V1330.38H914.873V1186.51H698.818ZM1261.99 1061.19C1261.99 1042 1277.6 1026.39 1296.8 1026.39C1315.99 1026.39 1331.6 1042 1331.6 1061.19V1173.52C1331.6 1192.71 1315.99 1208.33 1296.8 1208.33C1277.6 1208.33 1261.99 1192.71 1261.99 1173.52V1061.19Z" fill="#2D342E"/>
<path d="M632.803 351.099H702.42V490.333H632.803V351.099Z" fill="#2D342E"/>
<path d="M772.037 351.099H841.654V490.333H772.037V351.099Z" fill="#2D342E"/>
<path d="M911.271 351.099H980.889V490.333H911.271V351.099Z" fill="#2D342E"/>
<path d="M632.803 559.95H702.42V699.185H632.803V559.95Z" fill="#2D342E"/>
<path d="M772.037 559.95H841.654V699.185H772.037V559.95Z" fill="#2D342E"/>
<path d="M911.271 559.95H980.889V699.185H911.271V559.95Z" fill="#2D342E"/>
<path d="M632.803 768.802H702.42V908.036H632.803V768.802Z" fill="#2D342E"/>
<path d="M772.037 768.802H841.654V908.036H772.037V768.802Z" fill="#2D342E"/>
<path d="M911.271 768.802H980.889V908.036H911.271V768.802Z" fill="#2D342E"/>
<path d="M632.803 977.654H702.42V1116.89H632.803V977.654Z" fill="#2D342E"/>
<path d="M772.037 977.654H841.654V1116.89H772.037V977.654Z" fill="#2D342E"/>
<path d="M911.271 977.654H980.889V1116.89H911.271V977.654Z" fill="#2D342E"/>
</svg>
