<svg width="591" height="76" viewBox="0 0 591 76" fill="none" xmlns="http://www.w3.org/2000/svg">
<g clip-path="url(#clip0_36_20)">
<rect width="591" height="76" fill="white"/>
<path d="M70.5727 67.2726H4.63799C2.07526 67.2726 0 65.1889 0 62.6266V58.7971C0 56.2347 2.07526 54.1511 4.63799 54.1511H70.5866C73.1493 54.1511 75.2246 56.2347 75.2246 58.7971V62.6266C75.2246 65.1889 73.1493 67.2726 70.5866 67.2726H70.5727Z" fill="#CC5744"/>
<path d="M70.5727 45.1124H23.8446C21.2819 45.1124 19.2066 43.0287 19.2066 40.4664V36.6369C19.2066 34.0745 21.2819 31.9909 23.8446 31.9909H70.5727C73.1354 31.9909 75.2107 34.0745 75.2107 36.6369V40.4664C75.2107 43.0287 73.1354 45.1124 70.5727 45.1124Z" fill="#F2D249"/>
<path d="M70.5727 22.1215H42.2294C39.6667 22.1215 37.5914 20.0379 37.5914 17.4755V13.646C37.5914 11.0837 39.6667 9 42.2294 9H70.5727C73.1354 9 75.2107 11.0837 75.2107 13.646V17.4755C75.2107 20.0379 73.1354 22.1215 70.5727 22.1215Z" fill="#56A681"/>
<path d="M114.596 47.5833V66.8333H99V8.5H119.85C133.444 8.5 142.785 15.5833 142.785 28.25C142.785 36.3333 138.448 42 132.11 45.1667L147.038 66.8333H128.69L116.43 47.5833H114.596ZM114.596 22.4167V34.9167H120.1C124.103 34.9167 127.022 32.5833 127.022 28.6667C127.022 24.75 124.103 22.4167 120.1 22.4167H114.596Z" fill="#2D342E"/>
<path d="M152.509 8.5H168.355V66.8333H152.509V8.5Z" fill="#2D342E"/>
<path d="M175.14 23.1667V8.5H219.676V23.1667H205.248V66.8333H189.569V23.1667H175.14Z" fill="#2D342E"/>
<path d="M277.001 8.5H295.683V66.8333H280.421V34.0833L266.076 66.8333H255.984L241.723 34.25V66.8333H226.461V8.5H245.726L261.405 44.5833L277.001 8.5Z" fill="#2D342E"/>
<path d="M365.739 37.6667C365.739 54.5833 351.895 68 334.798 68C317.701 68 303.856 54.5833 303.856 37.6667C303.856 20.75 317.701 7.33333 334.798 7.33333C351.895 7.33333 365.739 20.75 365.739 37.6667ZM349.643 37.6667C349.643 29.25 343.138 22.5833 334.798 22.5833C326.458 22.5833 319.953 29.25 319.953 37.6667C319.953 46.0833 326.458 52.75 334.798 52.75C343.138 52.75 349.643 46.0833 349.643 37.6667Z" fill="#2D342E"/>
<path d="M389.209 8.5H403.553L426.655 66.8333H410.309L406.556 56.9167H385.789L382.12 66.8333H366.107L389.209 8.5ZM396.214 27.8333L390.376 43.75H402.052L396.214 27.8333Z" fill="#2D342E"/>
<path d="M471.493 25.1667V66.8333H456.231V61.75C453.896 65.8333 449.809 68 444.722 68C435.798 68 430.294 61.75 430.294 51.6667V25.1667H445.556V47.5C445.556 51.75 447.474 54.0833 450.81 54.0833C454.063 54.0833 456.231 51.6667 456.231 47.3333V25.1667H471.493Z" fill="#2D342E"/>
<path d="M510.156 8.5H525.335V66.8333H510.156V62.3333C507.154 66 502.733 67.9167 497.563 67.9167C486.721 67.9167 478.381 58.4167 478.381 46C478.381 33.6667 486.721 24.0833 497.563 24.0833C502.733 24.0833 507.237 25.9167 510.156 29.6667V8.5ZM493.643 46C493.643 50.5833 497.479 54.3333 502.066 54.3333C506.737 54.3333 510.573 50.5833 510.573 46C510.573 41.4167 506.737 37.6667 502.066 37.6667C497.479 37.6667 493.643 41.4167 493.643 46Z" fill="#2D342E"/>
<path d="M549.895 66.8333H534.632V25.1667H549.895V66.8333ZM550.812 13.4167C550.812 17.9167 547.059 21.8333 542.222 21.8333C537.551 21.8333 533.715 18 533.715 13.4167C533.715 8.83333 537.551 5 542.222 5C547.059 5 550.812 8.91667 550.812 13.4167Z" fill="#2D342E"/>
<path d="M561.064 13.25H576.242V25.1667H586V37.4167H576.242V48.6667C576.242 52.8333 578.077 54.4167 581.496 54.4167C582.998 54.4167 584.666 53.9167 586 53.1667V66C583.998 67 580.829 67.9167 576.159 67.9167C566.902 67.9167 561.064 62.1667 561.064 52.25V37.4167H555.476V25.1667H561.064V13.25Z" fill="#2D342E"/>
</g>
<defs>
<clipPath id="clip0_36_20">
<rect width="591" height="76" fill="white"/>
</clipPath>
</defs>
</svg>
