<svg width="1613" height="1613" viewBox="0 0 1613 1613" fill="none" xmlns="http://www.w3.org/2000/svg">
<rect width="1613" height="1613" fill="white"/>
<circle cx="1233" cy="1120" r="280" fill="#56A681"/>
<path d="M1192.17 816.107V305.138L210.464 212.475L210.773 1400H1401.54V816.105H1192.17V816.107ZM280.289 289.165L1122.38 368.647V816.105H1052.59V464.837H350.35V816.105H280.543L280.289 289.165ZM420.138 816.107V534.627H562.041V816.107H420.138ZM631.827 534.627H771.115V816.107H631.827V534.627ZM840.903 534.627H982.806V816.107H840.903V534.627ZM1174 1330.21H1052.59V1048.73H1174V1330.21ZM982.806 1330.21H840.903V1048.73H982.806V1330.21ZM771.115 1330.21H629.212V1048.73H771.115V1330.21ZM559.424 1330.21H438.02V1048.73H559.424V1330.21ZM1331.75 1330.21H1243.78V978.946H368.232V1330.21H280.561V885.895H1331.75V1330.21Z" fill="#2D342E"/>
</svg>
