<svg width="1613" height="1613" viewBox="0 0 1613 1613" fill="none" xmlns="http://www.w3.org/2000/svg">
<rect width="1613" height="1613" fill="white"/>
<circle cx="1244" cy="1122" r="280" fill="#56A681"/>
<path d="M506.349 840.549H761.198V591.981H506.349V840.549ZM576.041 661.673H691.506V770.857H576.041V661.673Z" fill="#2D342E"/>
<path d="M938.395 1099.32H1193.24V850.752H938.395V1099.32ZM1008.09 920.444H1123.55V1029.63H1008.09V920.444Z" fill="#2D342E"/>
<path d="M1400 663.271H1045.82L933.236 568.342V395.935H863.544V509.577L633.776 315.838L212 671.476L256.923 724.758L280.282 705.063V1297.03H1332.63V732.963H1400V663.271ZM578.989 1227.34V1043.04H688.561V1227.34H578.989ZM1262.94 1227.34H758.253V973.352H509.297V1227.34H349.974V646.299L633.776 407L1020.36 732.963H1262.94V1227.34Z" fill="#2D342E"/>
</svg>
