<svg width="1613" height="1613" viewBox="0 0 1613 1613" fill="none" xmlns="http://www.w3.org/2000/svg">
<rect width="1613" height="1613" fill="white"/>
<circle cx="1233" cy="1122" r="280" fill="#56A681"/>
<path d="M405.268 898.797H655.975V669.125H405.268V898.797ZM473.827 737.684H587.416V830.239H473.827V737.684Z" fill="#2D342E"/>
<path d="M1280.2 671.742V494.506H1074.52V643.649H840.279V552.285L548.934 255.148H515.015L220.964 552.189V1357H1391.04V826.914L1280.2 671.742ZM1143.08 563.064H1211.64V643.649H1143.08V563.064ZM840.279 712.208H1224.85L1291.78 805.905H840.279V712.208ZM531.821 335.62L724.381 532.007H337.413L531.821 335.62ZM587.416 1288.44H473.827V1081.62H587.416V1288.44ZM1182.74 1288.44H980.021V1081.62H1182.74V1288.44ZM1322.48 1288.44H1251.29V1013.06H911.462V1288.44H655.975V1013.06H405.268V1288.44H289.523V600.566H771.72V874.464H1322.48V1288.44Z" fill="#2D342E"/>
</svg>
