<svg width="932" height="596" viewBox="0 0 932 596" fill="none" xmlns="http://www.w3.org/2000/svg">
<path d="M1.41438 0L1.41435 594.333M531.757 0L531.757 594.333M266.586 0L266.586 594.333M796.928 0L796.928 594.333M134 0L134 594.333M664.343 0V594.333M399.171 0V594.333M67.7072 0L67.7072 594.333M598.05 0L598.05 594.333M332.879 0L332.878 594.333M863.221 0V594.333M200.293 0L200.293 594.333M730.635 0L730.635 594.333M465.464 0L465.464 594.333M931.586 528.434L1 528.434M931.586 263.181L1 263.181M932 130.554L1.41438 130.554M931.586 395.807L1 395.807M931.586 64.241L1 64.2409M931.586 594.747L1 594.747M931.586 329.494L1 329.494M931.586 196.867L1 196.867M931.586 462.12L1 462.12" stroke="url(#paint0_linear_4_3)"/>
<defs>
<linearGradient id="paint0_linear_4_3" x1="1031.85" y1="-72.9446" x2="497.557" y2="713.958" gradientUnits="userSpaceOnUse">
<stop stop-color="#2D342E"/>
<stop offset="0.755" stop-color="#2D342E" stop-opacity="0"/>
</linearGradient>
</defs>
</svg>
